# AST/ASF file generated using VICON BodyLanguage
# -----------------------------------------------
:version 1.10
:name VICON
:units
  mass 1.0
  length 0.45
  angle deg
:documentation
   .ast/.asf automatically generated from VICON data using
   VICON BodyBuilder and BodyLanguage model FoxedUp or BRILLIANT.MOD
:root
   order TX TY TZ RX RY RZ
   axis XYZ
   position 0 0 0  
   orientation 0 0 0 
:bonedata
  begin
     id 1 
     name lhipjoint
     direction 0.650112 -0.723553 0.232005 
     length 2.45805 
     axis 0 0 0  XYZ
  end
  begin
     id 2 
     name lfemur
     direction 0.34202 -0.939693 0  
     length 7.00073  
     axis 0 0 20  XYZ
    dof rx ry rz
    limits (-160.0 20.0)
           (-70.0 70.0)
           (-60.0 70.0)
  end
  begin
     id 3 
     name ltibia
     direction 0.34202 -0.939693 0   
     length 7.8748   
     axis 0 0 20   XYZ
    dof rx
    limits (-10.0 170.0)
  end
  begin
     id 4 
     name lfoot
     direction 0.0542825 -0.14914 0.987325   
     length 1.75978   
     axis -90 7.62852e-016 20   XYZ
    dof rx rz
    limits (-45.0 90.0)
           (-70.0 20.0)
  end
  begin
     id 5 
     name ltoes
     direction 1.53509e-011 -4.21906e-011 1   
     length 0.893912   
     axis -90 7.62852e-016 20   XYZ
    dof rx
    limits (-90.0 20.0)
  end
  begin
     id 6 
     name rhipjoint
     direction -0.637897 -0.733345 0.235145   
     length 2.42522  
     axis 0 0 0  XYZ 
  end
  begin
     id 7 
     name rfemur
     direction -0.34202 -0.939693 0   
     length 7.02549   
     axis 0 0 -20   XYZ
    dof rx ry rz
    limits (-160.0 20.0)
           (-70.0 70.0)
           (-70.0 60.0)
  end
  begin
     id 8 
     name rtibia
     direction -0.34202 -0.939693 0   
     length 7.71512   
     axis 0 0 -20   XYZ
    dof rx
    limits (-10.0 170.0)
 end
 begin
     id 9 
     name rfoot
     direction -0.0822618 -0.226012 0.970645   
     length 1.90014  
     axis -90 -7.62852e-016 -20   XYZ
    dof rx rz
    limits (-45.0 90.0)
           (-20.0 70.0)
  end
  begin
     id 10 
     name rtoes
     direction -1.53542e-011 -4.21872e-011 1   
     length 0.957341   
     axis -90 -7.62852e-016 -20   XYZ
    dof rx
    limits (-90.0 20.0)
  end
  begin
     id 11 
     name lowerback
     direction -0.0022947 0.999774 -0.0211557   
     length 1.89909   
     axis 0 0 0   XYZ
    dof rx ry rz
    limits (-20.0 45.0)
           (-30.0 30.0)
           (-30.0 30.0)
  end
  begin
     id 12 
     name upperback
     direction 0.0107737 0.998635 0.0511027   
     length 1.8853   
     axis 0 0 0   XYZ
    dof rx ry rz
    limits (-20.0 45.0)
           (-30.0 30.0)
           (-30.0 30.0)
  end
  begin
     id 13 
     name thorax
     direction 0.011824 0.998136 0.0598754   
     length 1.88911   
     axis 0 0 0   XYZ
    dof rx ry rz
    limits (-20.0 45.0)
           (-30.0 30.0)
           (-30.0 30.0)
  end
  begin
     id 14 
     name lowerneck
     direction -0.0685355 0.990319 0.120714   
     length 1.91222   
     axis 0 0 0   XYZ
    dof rx ry rz
    limits (-20.0 45.0)
           (-30.0 30.0)
           (-30.0 30.0)
  end
  begin
     id 15 
     name upperneck
     direction 0.0886204 0.955665 -0.280805   
     length 1.92526   
     axis 0 0 0   XYZ
    dof rx ry rz
    limits (-20.0 45.0)
           (-30.0 30.0)
           (-30.0 30.0)
  end
  begin
     id 16
     name head
     direction 0.0233423 0.993502 -0.111393  
     length 1.96056  
     axis 0 0 0   XYZ
    dof rx ry rz
    limits (-20.0 45.0)
           (-30.0 30.0)
           (-30.0 30.0)
  end
  begin
     id 17 
     name lclavicle
     direction 0.941873 0.32922 0.0670041  
     length 3.31705  
     axis 0 0 0   XYZ
    dof ry rz
    limits (-20.0 10.0)
           (0.0 20.0)
  end
  begin
     id 18 
     name lhumerus
     direction 1 -4.4898e-011 3.38707e-028   
     length 5.29277   
     axis 180 -30 -90   XYZ
    dof rx ry rz
    limits (-60.0 90.0)
           (-90.0 90.0)
           (-90.0 90.0)
  end
  begin
     id 19
     name lradius
     direction 1 -4.48952e-011 1.63213e-028   
     length 2.85226   
     axis 180 -30 -90   XYZ
    dof rx
    limits (-10.0 170.0)
  end
  begin
     id 20
     name lwrist
     direction 1 -4.49001e-011 1.27856e-027   
     length 1.42613   
     axis -1.61767e-015 90 90   XYZ
    dof ry
    limits (-180.0 0.0)
 end
  begin
     id 21 
     name lhand
     direction 1 -4.48976e-011 2.55931e-027   
     length 0.602097   
     axis -1.63363e-015 90 90   XYZ
    dof rx rz
    limits (-90.0 90.0)
           (-45.0 45.0)
  end
  begin
     id 22 
     name lfingers
     direction 1 -4.48986e-011 5.11684e-027   
     length 0.485426   
     axis -3.26723e-015 90 90   XYZ
    dof rx
    limits (0.0 90.0)
  end
  begin
     id 23
     name lthumb
     direction 0.707107 -6.34915e-011 0.707107   
     length 0.696978   
     axis -90 45 -2.25915e-014   XYZ
    dof rx rz
    limits (-45.0 45.0)
           (-45.0 45.0)
  end
  begin
     id 24 
     name rclavicle
     direction -0.939974 0.327078 0.0973096   
     length 3.10337  
     axis 0 0 0   XYZ 
    dof ry rz
    limits (-10.0 20.0)
           (-20.0 0.0)
  end
  begin
     id 25 
     name rhumerus
     direction -1 -4.48975e-011 1.83745e-027  
     length 5.13304   
     axis 180 30 90   XYZ
    dof rx ry rz
    limits (-90.0 60.0)
           (-90.0 90.0)
           (-90.0 90.0)
  end
  begin
     id 26 
     name rradius
     direction -1 -4.48977e-011 7.1775e-029   
     length 2.74305   
     axis 180 30 90   XYZ
    dof rx
    limits (-10.0 170.0)
  end
  begin
     id 27 
     name rwrist
     direction -1 -4.48977e-011 1.27963e-027   
     length 1.37152   
     axis -1.61767e-015 -90 -90   XYZ
    dof ry
    limits (-180.0 0.0)
  end
  begin
     id 28
     name rhand
     direction -1 -4.4888e-011 2.56782e-027   
     length 0.767976   
     axis -1.63363e-015 -90 -90   XYZ
    dof rx rz
    limits (-90.0 90.0)
           (-45.0 45.0)
  end
  begin
     id 29
     name rfingers
     direction -1 -4.48947e-011 5.12384e-027   
     length 0.619162   
     axis -3.26723e-015 -90 -90   XYZ
    dof rx
    limits (0.0 90.0)
  end
  begin
     id 30
     name rthumb
     direction -0.707107 -6.34857e-011 0.707107   
     length 0.888997   
     axis -90 -45 2.25915e-014   XYZ
    dof rx rz
    limits (-45.0 45.0)
           (-45.0 45.0)
  end
:hierarchy
  begin
    root lhipjoint rhipjoint lowerback
    lhipjoint lfemur
    lfemur ltibia
    ltibia lfoot
    lfoot ltoes
    rhipjoint rfemur
    rfemur rtibia
    rtibia rfoot
    rfoot rtoes
    lowerback upperback
    upperback thorax
    thorax lowerneck lclavicle rclavicle
    lowerneck upperneck
    upperneck head
    lclavicle lhumerus
    lhumerus lradius
    lradius lwrist
    lwrist lhand lthumb
    lhand lfingers
    rclavicle rhumerus
    rhumerus rradius
    rradius rwrist
    rwrist rhand rthumb
    rhand rfingers
  end

#!OML:ASF F:\VICON\USERDATA\INSTALL\rory3\rory3.ASF
:FULLY-SPECIFIED
:DEGREES
2044
root -0.215496 16.9371 -1.15421 -2.69966 -1.87322 -2.48656
lowerback 7.52849 -3.49386 -4.95669
upperback 9.62404 -4.69249 -3.41784
thorax 5.99067 -2.54024 -0.724686
lowerneck -6.76616 -4.55907 -18.5906
upperneck 19.5913 -10.0191 29.8108
head 9.83295 -3.9728 13.6114
rclavicle 1.27222e-014 -6.52014e-014
rhumerus 69.4844 11.2763 -21.0178
rradius 54.2938
rwrist -50.1359
rhand 11.6889 7.05324
rfingers 7.12502
rthumb 36.7264 -19.0815
lclavicle 1.27222e-014 -6.52014e-014
lhumerus 63.9501 -26.4158 83.4359
lradius 49.097
lwrist 43.4985
lhand -43.7376 65.8414
lfingers 7.12502
lthumb -16.5685 -455.154
rfemur -10.1977 5.85385 22.2149
rtibia 30.6847
rfoot -19.7342 -5.51495
rtoes -21.0745
lfemur -11.6903 -4.11856 -13.9271
ltibia 35.0576
lfoot -19.5327 2.05034
ltoes -21.5677
2045
root -0.242439 16.9347 -1.15852 -2.64719 -1.6243 -2.65804
lowerback 7.62015 -3.64007 -5.32055
upperback 9.46182 -4.9195 -3.21442
thorax 5.82463 -2.67969 -0.295177
lowerneck -6.69248 -4.43767 -19.0839
upperneck 19.7568 -9.83438 29.9301
head 9.85109 -3.92285 13.8257
rclavicle -3.49861e-014 -3.02153e-014
rhumerus 70.3442 11.8308 -20.458
rradius 54.3582
rwrist -50.2691
rhand 11.64 7.1682
rfingers 7.12502
rthumb 36.6801 -18.9783
lclavicle -3.49861e-014 -3.02153e-014
lhumerus 63.4474 -25.4874 83.9457
lradius 49.1341
lwrist 43.4363
lhand -42.9966 68.3689
lfingers 7.12502
lthumb -15.855 -457.74
rfemur -10.2013 5.68205 22.4915
rtibia 30.5992
rfoot -19.7028 -5.59163
rtoes -21.2253
lfemur -11.8454 -4.2166 -13.6297
ltibia 35.1293
lfoot -19.5603 1.80604
ltoes -21.4518
2046
root -0.267553 16.9352 -1.1626 -2.60688 -1.34982 -2.87418
lowerback 7.61514 -3.51893 -5.12021
upperback 9.52155 -4.74024 -3.37899
thorax 5.85137 -2.57191 -0.581494
lowerneck -6.66737 -4.62046 -18.8017
upperneck 19.5898 -10.2009 30.2608
head 9.921 -4.06493 13.869
rclavicle 3.57812e-014 0
rhumerus 70.2148 11.7861 -20.6946
rradius 54.1152
rwrist -49.9337
rhand 11.7107 7.40796
rfingers 7.12502
rthumb 36.747 -18.7215
lclavicle 3.57812e-014 0
lhumerus 63.56 -25.6685 83.6265
lradius 49.3294
lwrist 43.7177
lhand -42.3341 70.6118
lfingers 7.12502
lthumb -15.217 -460.032
rfemur -10.1992 5.46744 22.804
rtibia 30.5233
rfoot -19.6561 -5.6219
rtoes -21.4346
lfemur -12.0108 -4.3896 -13.3002
ltibia 35.2165
lfoot -19.5679 1.68423
ltoes -21.2059
2047
root -0.293599 16.9357 -1.16439 -2.58749 -1.13339 -3.00726
lowerback 7.58158 -3.29571 -4.92684
upperback 9.61304 -4.41816 -3.63648
thorax 5.92105 -2.39017 -0.967586
lowerneck -6.64793 -4.86415 -18.3773
upperneck 19.3719 -10.6911 30.6833
head 10.0169 -4.2518 13.9057
rclavicle 1.35174e-014 -2.70347e-014
rhumerus 69.7963 11.6368 -20.8587
rradius 53.997
rwrist -49.6494
rhand 11.5255 7.68385
rfingers 7.12502
rthumb 36.5717 -18.4901
lclavicle 1.35174e-014 -2.70347e-014
lhumerus 63.747 -26.1289 83.2495
lradius 49.449
lwrist 43.9851
lhand -42.6119 70.3196
lfingers 7.12502
lthumb -15.4846 -459.72
rfemur -10.1801 5.33644 23.0425
rtibia 30.4648
rfoot -19.6369 -5.67748
rtoes -21.4598
lfemur -12.133 -4.52855 -13.0555
ltibia 35.2978
lfoot -19.5218 1.78156
ltoes -22.1692
2048
root -0.318247 16.936 -1.166 -2.55698 -0.959479 -3.14157
lowerback 7.60429 -3.13662 -4.85887
upperback 9.60534 -4.19922 -3.77619
thorax 5.87834 -2.27009 -1.1516
lowerneck -6.58704 -5.00876 -18.1592
upperneck 19.2913 -11.0028 30.9693
head 10.0935 -4.37733 13.9572
rclavicle 2.14687e-014 -1.11319e-014
rhumerus 69.6829 11.6373 -20.5305
rradius 54.0684
rwrist -49.8582
rhand 11.3475 7.80181
rfingers 7.12502
rthumb 36.4033 -18.4146
lclavicle 2.14687e-014 -1.11319e-014
lhumerus 63.6402 -26.2755 83.251
lradius 49.4769
lwrist 44.1296
lhand -43.4956 69.5576
lfingers 7.12502
lthumb -16.3356 -458.89
rfemur -10.1808 5.25747 23.2844
rtibia 30.4101
rfoot -19.6243 -5.75891
rtoes -21.8063
lfemur -12.2361 -4.60419 -12.8051
ltibia 35.3567
lfoot -19.52 1.83062
ltoes -22.9253
